<?xml version="1.0" standalone="no"?>
<!DOCTYPE svg PUBLIC "-//W3C//DTD SVG 20010904//EN"
 "http://www.w3.org/TR/2001/REC-SVG-20010904/DTD/svg10.dtd">
<svg version="1.0" xmlns="http://www.w3.org/2000/svg"
 width="1024.000000pt" height="1024.000000pt" viewBox="0 0 1024.000000 1024.000000"
 preserveAspectRatio="xMidYMid meet">

<g transform="translate(0.000000,1024.000000) scale(0.100000,-0.100000)" stroke="none" fill="currentColor">
<path d="M4842 5773 c2 -1165 4 -2353 6 -2640 l2 -523 455 0 455 0 1 1763 c0
1286 3 1755 11 1737 6 -14 69 -144 139 -290 129 -269 288 -606 699 -1480 125
-267 282 -599 349 -738 66 -139 121 -255 121 -258 0 -2 53 -113 117 -247 64
-133 140 -296 169 -362 l52 -120 531 -3 531 -2 2 2615 c1 1438 2 2625 2 2638
l1 22 -483 3 -484 2 4 -1700 c1 -935 0 -1700 -3 -1700 -18 0 -345 666 -511
1040 -70 156 -215 461 -421 880 -79 162 -193 399 -252 525 -176 378 -387 826
-420 890 l-30 60 -523 3 -522 2 2 -2117z"/>
<path d="M2840 7508 l0 -368 213 -2 212 -3 3 -1600 c2 -1157 0 -1630 -8 -1709
-13 -117 -39 -226 -69 -285 -51 -98 -166 -151 -332 -151 -127 0 -203 26 -277
95 -120 110 -180 289 -197 580 l-7 120 -417 -3 c-229 -1 -422 -5 -430 -7 -26
-10 1 -465 40 -653 70 -341 237 -601 496 -769 136 -89 287 -147 478 -185 148
-30 458 -32 610 -4 539 98 909 454 1025 985 52 237 51 176 50 2320 0 1097 -2
1996 -3 1997 -2 2 -314 4 -695 6 l-692 3 0 -367z"/>
</g>
</svg>
